<svg id="Capa_1" fill="white" enable-background="new 0 0 511.989 511.989" height="512" viewBox="0 0 511.989 511.989" width="512" xmlns="http://www.w3.org/2000/svg"><g><path d="m478.676 139.306c1.464 1.464 3.384 2.197 5.303 2.197s3.839-.732 5.303-2.197l20.51-20.51c2.929-2.929 2.929-7.678 0-10.606-2.929-2.929-7.678-2.929-10.606 0l-4.951 4.951-14.125-14.124c3.149-3.846 4.864-8.618 4.865-13.652.002-5.776-2.249-11.205-6.328-15.276-4.077-4.085-9.503-6.334-15.278-6.334-5.041 0-9.815 1.716-13.656 4.865l-10.535-10.535c3.15-3.843 4.864-8.615 4.864-13.654 0-5.775-2.25-11.201-6.324-15.269-4.08-4.087-9.505-6.337-15.278-6.337-.002 0-.005 0-.008 0-5.769.002-11.194 2.251-15.276 6.333l-16.613 16.613c-45.802-30.274-100.991-44.813-156.142-41.016-55.864 3.846-109.169 26.44-150.766 63.776l-45.722-29.096c-6.579-4.191-14.71-3.306-20.232 2.208-5.526 5.518-6.426 13.655-2.236 20.253l30.855 48.485c-33.536 47.249-49.741 104.986-45.689 163.187 4.213 60.531 30.187 117.524 73.135 160.483 34.777 34.772 78.499 58.435 126.437 68.431 17.12 3.57 34.448 5.345 51.73 5.345 29.87 0 59.599-5.303 87.859-15.81 3.883-1.443 5.86-5.761 4.417-9.643-1.443-3.883-5.76-5.86-9.643-4.417-41.96 15.599-87.363 19.002-131.301 9.84-45.073-9.398-86.186-31.651-118.892-64.353-40.39-40.399-64.815-93.996-68.778-150.918-3.668-52.682 10.307-104.951 39.467-148.407l13.033 20.48c-20.358 33.523-31.101 71.924-31.101 111.379 0 57.39 22.348 111.343 62.926 151.922 40.579 40.579 94.532 62.926 151.922 62.926s111.346-22.348 151.927-62.926c40.582-40.579 62.931-94.533 62.931-151.922 0-49.355-16.989-97.121-47.96-135.305l39.988-39.988c1.243-1.245 2.898-1.931 4.662-1.931s3.419.686 4.672 1.941c1.248 1.246 1.935 2.902 1.935 4.664 0 1.764-.689 3.424-1.939 4.674l-20.99 20.99c-2.571 2.571-2.928 6.616-.846 9.597 31.429 45.006 46.215 100.099 41.635 155.13-4.634 55.672-28.975 108.124-68.539 147.692-17.218 17.218-36.806 31.598-58.219 42.74-3.674 1.912-5.103 6.441-3.191 10.115 1.337 2.569 3.951 4.04 6.66 4.04 1.166 0 2.35-.273 3.456-.848 22.773-11.85 43.6-27.138 61.902-45.44 42.07-42.075 67.953-97.852 72.881-157.055 4.694-56.403-9.753-112.877-40.745-159.752l7.543-7.543 14.046 14.046-4.952 4.952c-2.933 2.931-2.933 7.68-.003 10.609zm-80.209-40.357 30.181-30.181 10.382 10.382-30.181 30.181c-3.341-3.574-6.809-7.041-10.382-10.382zm-163.036-79.23c53.85-3.706 107.74 11.169 151.734 41.891 2.982 2.082 7.027 1.726 9.597-.846l21-21c1.25-1.25 2.91-1.939 4.674-1.94h.002c1.761 0 3.417.687 4.671 1.944 1.246 1.243 1.931 2.898 1.931 4.662 0 1.763-.686 3.419-1.936 4.667l-39.982 39.982c-38.18-30.969-85.946-47.959-135.301-47.959-49.438 0-97.351 17.071-135.562 48.171l-19.45-12.377c38.638-33.451 87.489-53.674 138.622-57.195zm-207.151 32.538c.719-.716 1.252-.376 1.577-.169l93.503 59.501c6.389 4.061 10.469 10.593 11.635 17.688l-12.333-12.333c-8.188-8.188-21.509-8.187-29.697 0-3.965 3.965-6.149 9.238-6.149 14.848s2.184 10.883 6.148 14.847l12.35 12.356c-7.255-1.165-13.69-5.33-17.713-11.652l-59.497-93.494c-.192-.302-.55-.866.176-1.592zm223.541 403.569c-110.196 0-199.848-89.651-199.848-199.848 0-34.274 8.713-67.686 25.282-97.345 7.72 9.892 19.489 15.706 32.228 15.706 3.491 0 6.916-.446 10.236-1.308 7.752 6.49 16.883 11.068 26.715 13.334 4.033.93 8.062-1.586 8.993-5.623.931-4.036-1.587-8.062-5.623-8.993-8.95-2.063-17.156-6.63-23.73-13.204l-22.501-22.511c-2.339-2.339-2.339-6.145 0-8.483 2.338-2.338 6.145-2.339 8.484 0l22.495 22.495c7.062 7.075 16.462 10.972 26.468 10.972s19.406-3.896 26.463-10.967l24.358-24.358c16.232-16.224 42.645-16.225 58.875-.001 7.845 7.845 12.166 18.298 12.166 29.432s-4.321 21.586-12.165 29.43l-20.221 20.212c-1.126 1.13-2.627 1.753-4.227 1.753-1.602 0-3.109-.626-4.247-1.763-1.132-1.132-1.756-2.639-1.756-4.242s.624-3.109 1.756-4.242l20.2-20.2c5.59-5.59 8.669-13.03 8.669-20.948s-3.079-15.358-8.669-20.948c-5.585-5.586-13.023-8.662-20.943-8.662s-15.358 3.076-20.943 8.662l-24.37 24.37c-5.823 5.823-13.019 10.123-20.809 12.433-3.971 1.178-6.236 5.352-5.058 9.323s5.351 6.236 9.323 5.058c10.178-3.018 19.566-8.623 27.151-16.207l24.37-24.37c5.7-5.699 14.974-5.699 20.674 0 5.702 5.703 5.702 14.981 0 20.684l-20.2 20.2c-3.965 3.965-6.149 9.239-6.149 14.849 0 5.609 2.184 10.883 6.149 14.848 3.97 3.97 9.245 6.157 14.853 6.157 5.617 0 10.892-2.19 14.842-6.155l20.211-20.202c10.679-10.678 16.56-24.897 16.56-40.038s-5.881-29.36-16.561-40.04c-22.079-22.068-58.004-22.068-80.085.001l-24.365 24.365c-4.228 4.236-9.858 6.568-15.852 6.568-4.213 0-8.234-1.175-11.728-3.332 3.862-16.657-3.126-34.375-17.881-43.753l-1.756-1.117c34.869-26.951 77.858-41.695 122.168-41.695 48.084 0 94.554 17.323 130.844 48.775 7.189 6.237 13.999 13.047 20.237 20.237 31.454 36.292 48.777 82.761 48.777 130.846-.002 110.194-89.658 199.845-199.86 199.845z"/><path d="m378.899 314.694c-4.25-4.25-9.9-6.59-15.91-6.59-5.514 0-10.711 1.99-14.815 5.597-8.829-7.743-22.306-7.428-30.731.998-8.402 8.417-8.716 21.888-.983 30.717-3.607 4.104-5.598 9.302-5.598 14.816 0 6.01 2.34 11.66 6.59 15.91s9.9 6.59 15.91 6.59c5.514 0 10.711-1.99 14.815-5.598 4.229 3.709 9.513 5.587 14.812 5.587 5.764 0 11.529-2.195 15.919-6.585 8.404-8.417 8.717-21.889.983-30.717 3.607-4.104 5.598-9.302 5.598-14.816 0-6.009-2.341-11.659-6.59-15.909zm-50.845 10.607c2.549-2.55 6.492-2.875 9.4-.982l-10.376 10.376c-1.89-2.908-1.565-6.849.976-9.394zm5.307 42.431c-2.003 0-3.887-.78-5.303-2.197s-2.197-3.3-2.197-5.303.78-3.887 2.197-5.303l29.627-29.628c1.417-1.417 3.3-2.197 5.303-2.197s3.887.78 5.303 2.197c1.417 1.417 2.197 3.3 2.197 5.303s-.78 3.887-2.197 5.303l-29.627 29.628c-1.416 1.416-3.3 2.197-5.303 2.197zm34.936-2.198c-1.417 1.417-3.302 2.198-5.307 2.198-1.476 0-2.886-.427-4.094-1.216l10.376-10.376c1.891 2.907 1.566 6.848-.975 9.394z"/><path d="m317.451 219.867c4.25 4.25 9.9 6.59 15.91 6.59 5.513 0 10.709-1.989 14.813-5.595 4.228 3.704 9.513 5.581 14.813 5.581 5.764 0 11.529-2.191 15.921-6.575 8.405-8.42 8.719-21.893.985-30.725 3.606-4.104 5.595-9.3 5.595-14.813 0-6.01-2.341-11.66-6.59-15.91-4.25-4.25-9.9-6.59-15.91-6.59-5.513 0-10.709 1.989-14.813 5.595-8.827-7.735-22.305-7.42-30.734.995-8.404 8.419-8.719 21.893-.985 30.724-3.606 4.104-5.596 9.301-5.596 14.813.001 6.011 2.342 11.661 6.591 15.91zm50.85-10.606c-2.552 2.548-6.499 2.874-9.407.983l10.38-10.38c1.891 2.91 1.566 6.854-.973 9.397zm-5.312-42.431c2.003 0 3.887.78 5.303 2.197 1.417 1.416 2.197 3.299 2.197 5.303 0 2.003-.78 3.887-2.197 5.303l-29.627 29.627c-1.417 1.417-3.3 2.197-5.303 2.197s-3.887-.78-5.303-2.197c-1.417-1.416-2.197-3.299-2.197-5.303 0-2.003.78-3.887 2.197-5.303l29.627-29.627c1.416-1.417 3.3-2.197 5.303-2.197zm-34.94 2.197c2.552-2.547 6.499-2.873 9.406-.983l-10.38 10.38c-1.89-2.91-1.565-6.854.974-9.397z"/><path d="m301.085 314.694c-4.25-4.25-9.9-6.59-15.91-6.59-5.515 0-10.713 1.991-14.818 5.6-8.827-7.742-22.3-7.427-30.72.991-8.419 8.419-8.734 21.892-.991 30.719-3.608 4.105-5.6 9.303-5.6 14.818 0 6.01 2.34 11.66 6.59 15.91 4.386 4.386 10.148 6.58 15.91 6.58 5.3 0 10.586-1.88 14.816-5.591 4.229 3.71 9.514 5.59 14.813 5.59 5.761 0 11.522-2.193 15.908-6.579 8.42-8.42 8.734-21.895.989-30.721 7.747-8.829 7.434-22.306-.987-30.727zm-50.841 10.607c2.548-2.548 6.488-2.873 9.393-.98l-10.373 10.373c-1.893-2.906-1.567-6.845.98-9.393zm0 40.234c-1.417-1.417-2.197-3.3-2.197-5.303s.78-3.887 2.197-5.303l29.628-29.628c1.416-1.417 3.299-2.197 5.303-2.197 2.003 0 3.887.78 5.303 2.197 2.924 2.924 2.924 7.682 0 10.606l-29.628 29.628c-2.924 2.924-7.681 2.924-10.606 0zm40.233-.001c-2.549 2.548-6.487 2.873-9.393.98l10.373-10.373c1.894 2.905 1.568 6.845-.98 9.393z"/><path d="m301.085 236.473c-4.25-4.25-9.9-6.59-15.91-6.59-5.516 0-10.714 1.992-14.818 5.6-8.827-7.742-22.3-7.426-30.719.992-8.42 8.42-8.734 21.894-.99 30.72-7.745 8.828-7.431 22.303.99 30.725 4.386 4.386 10.148 6.579 15.91 6.579 5.3 0 10.585-1.879 14.815-5.59 4.229 3.711 9.515 5.591 14.814 5.591 5.761 0 11.522-2.193 15.908-6.579 4.251-4.25 6.592-9.901 6.592-15.912 0-5.517-1.993-10.714-5.6-14.813 7.742-8.827 7.428-22.303-.992-30.723zm-50.841 10.609c2.548-2.547 6.487-2.873 9.392-.98l-10.373 10.373c-1.892-2.907-1.566-6.846.981-9.393zm0 40.232c-2.924-2.924-2.924-7.683 0-10.607l29.628-29.627c1.416-1.417 3.299-2.197 5.303-2.197 2.003 0 3.886.78 5.303 2.197 2.924 2.924 2.924 7.682 0 10.606l-29.628 29.627c-2.924 2.925-7.682 2.924-10.606.001zm40.233.001c-2.549 2.548-6.488 2.873-9.394.979l10.375-10.375c.79 1.205 1.217 2.614 1.217 4.09.001 2.004-.78 3.888-2.198 5.306z"/><path d="m379.68 236.473c-4.25-4.25-9.9-6.59-15.91-6.59-5.514 0-10.712 1.991-14.816 5.598-8.829-7.742-22.305-7.427-30.73.999-8.404 8.418-8.717 21.89-.983 30.718-7.743 8.828-7.428 22.302.992 30.723 4.387 4.386 10.148 6.579 15.91 6.579 5.297 0 10.582-1.877 14.81-5.585 4.105 3.608 9.303 5.599 14.818 5.599 6.011 0 11.663-2.341 15.917-6.596 8.412-8.426 8.723-21.901.982-30.72 7.744-8.829 7.43-22.305-.99-30.725zm-50.846 10.609c2.549-2.549 6.491-2.875 9.399-.982l-10.376 10.376c-1.889-2.909-1.564-6.849.977-9.394zm.005 40.232c-2.924-2.924-2.924-7.683 0-10.607l29.628-29.627c1.417-1.417 3.3-2.197 5.303-2.197s3.887.78 5.303 2.197c2.924 2.924 2.924 7.682 0 10.606l-29.627 29.627c-2.925 2.925-7.683 2.925-10.607.001zm40.238.001c-2.55 2.55-6.493 2.875-9.401.981l10.378-10.378c1.893 2.904 1.568 6.847-.977 9.397z"/><path d="m223.271 314.694c-8.42-8.42-21.896-8.735-30.723-.991-8.829-7.745-22.307-7.431-30.734.996-8.403 8.418-8.716 21.891-.981 30.719-7.744 8.827-7.43 22.302.99 30.723 4.25 4.25 9.9 6.59 15.91 6.59 5.513 0 10.709-1.99 14.813-5.595 4.105 3.606 9.302 5.596 14.815 5.596 6.011 0 11.663-2.341 15.917-6.596 8.404-8.417 8.717-21.888.984-30.716 3.607-4.104 5.598-9.302 5.598-14.816.001-6.01-2.339-11.66-6.589-15.91zm-50.846 10.607c2.55-2.55 6.493-2.876 9.401-.981l-10.376 10.376c-1.891-2.908-1.566-6.85.975-9.395zm5.308 42.431c-2.003 0-3.887-.78-5.303-2.197-2.924-2.924-2.924-7.682 0-10.606l29.628-29.628c1.462-1.462 3.383-2.193 5.303-2.193s3.841.731 5.303 2.193c1.417 1.417 2.197 3.3 2.197 5.303s-.78 3.887-2.197 5.303l-29.628 29.628c-1.416 1.416-3.299 2.197-5.303 2.197zm34.935-2.198c-2.549 2.549-6.492 2.876-9.4.982l10.376-10.376c1.891 2.908 1.566 6.848-.976 9.394z"/></g></svg>
