<svg height="512pt" fill="white" viewBox="0 0 512 512.0223" width="512pt" xmlns="http://www.w3.org/2000/svg"><path d="m178.160156 153.25c4.539063 5.070312 10.277344 8.917969 16.691406 11.195312 6.59375 2.296876 13.726563 2.542969 20.460938.707032 6.480469-1.695313 12.316406-5.253906 16.785156-10.242188.816406-.941406.914063-2.3125.234375-3.359375-.679687-1.050781-1.96875-1.523437-3.164062-1.160156l-.378907.113281c-9.644531 3.753906-20.175781 4.605469-30.300781 2.457032-4.835937-1.550782-9.347656-3.972657-13.3125-7.148438-2.183593-1.535156-3.984375-3.640625-6.207031-5.359375-1.953125-2.019531-3.78125-4.179687-5.941406-6.199219l-.257813-.238281c-.933593-.871094-2.351562-.976563-3.402343-.25-1.050782.726563-1.457032 2.085937-.976563 3.269531 1.167969 2.867188 2.613281 5.636719 4.035156 8.46875 1.703125 2.730469 3.621094 5.320313 5.734375 7.746094zm0 0"/><path d="m282.917969 112.359375.378906-.113281c9.644531-3.753906 20.175781-4.609375 30.300781-2.460938 4.835938 1.554688 9.347656 3.976563 13.3125 7.152344 2.179688 1.535156 3.980469 3.636719 6.207032 5.355469 1.949218 2.019531 3.777343 4.183593 5.941406 6.203125l.257812.238281c.933594.871094 2.347656.976563 3.402344.25 1.050781-.726563 1.457031-2.085937.976562-3.269531-1.167968-2.871094-2.613281-5.640625-4.035156-8.472656-1.703125-2.730469-3.621094-5.320313-5.734375-7.746094-4.539062-5.070313-10.277343-8.921875-16.691406-11.195313-6.59375-2.296875-13.726563-2.542969-20.460937-.707031-6.480469 1.691406-12.316407 5.253906-16.785157 10.238281-.816406.945313-.914062 2.316407-.238281 3.363281.679688 1.050782 1.972656 1.523438 3.167969 1.160157zm0 0"/><path d="m42.691406 256.023438h26.339844c3.679688 57.046874 30.59375 110.09375 74.457031 146.757812-20.175781 12.390625-32.484375 34.363281-32.511719 58.042969v25.597656c.015626 14.132813 11.46875 25.585937 25.597657 25.601563h102.402343c6.316407-.019532 12.402344-2.394532 17.066407-6.65625 4.664062 4.261718 10.746093 6.636718 17.066406 6.65625h102.398437c14.132813-.015626 25.585938-11.46875 25.601563-25.601563v-25.597656c-.03125-23.679688-12.335937-45.652344-32.511719-58.042969 43.863282-36.664062 70.773438-89.710938 74.457032-146.757812h26.320312c13.054688.023437 25.402344-5.945313 33.484375-16.199219 8.210937-10.476563 11.113281-24.164063 7.859375-37.070313l-29.320312-107.96875c3.238281-4.917968 5.59375-10.359375 6.960937-16.085937 3.273437-14.445313 1.484375-29.578125-5.066406-42.867188-6.210938-13.457031-16.867188-24.367187-30.175781-30.890625-12.460938-6.308594-27.125-6.585937-39.816407-.75-24.667969 11.769532-33.410156 45.101563-19.484375 74.308594 6.226563 13.472656 16.90625 24.382812 30.242188 30.890625 2.960937 1.378906 6.042968 2.480469 9.207031 3.296875l24.960937 92.136719h-17.109374c-14.945313-96.730469-92.222657-170.667969-185.074219-170.667969-92.855469 0-170.128907 73.9375-185.078125 170.667969h-17.121094l24.960938-92.140625c3.164062-.816406 6.246093-1.917969 9.207031-3.292969 13.335937-6.511719 24.015625-17.421875 30.242187-30.890625 6.550782-13.296875 8.316406-28.445312 5-42.894531-2.945312-13.65625-11.960937-25.226563-24.488281-31.417969-12.691406-5.835938-27.351563-5.558594-39.816406.75-13.308594 6.523438-23.964844 17.433594-30.171875 30.890625-6.554688 13.289063-8.339844 28.421875-5.070313 42.871094 1.371094 5.726562 3.722657 11.171875 6.960938 16.089843l-29.382813 108.226563c-3.1875 12.746094-.320312 26.25 7.769532 36.605469 8.089843 10.355468 20.496093 16.40625 33.636718 16.402344zm136.550782 153.597656h17.066406c28.265625.03125 51.167968 22.9375 51.199218 51.203125h-119.464843c.03125-28.265625 22.933593-51.171875 51.199219-51.203125zm59.734374 85.335937h-102.402343c-4.710938-.003906-8.527344-3.824219-8.53125-8.535156v-8.53125h119.464843v8.53125c0 4.710937-3.820312 8.53125-8.53125 8.535156zm136.53125 0h-102.398437c-4.710937-.003906-8.53125-3.824219-8.535156-8.535156v-8.53125h119.46875v8.53125c-.003907 4.710937-3.824219 8.53125-8.535157 8.535156zm8.535157-34.132812h-119.46875c.03125-28.265625 22.9375-51.171875 51.203125-51.203125h17.066406c28.261719.03125 51.167969 22.9375 51.199219 51.203125zm25.171875-389.675781c-9.875-20.710938-4.742188-43.84375 11.433594-51.558594 3.523437-1.664063 7.371093-2.519532 11.265624-2.5 4.832032.058594 9.589844 1.179687 13.933594 3.289062 9.742188 4.847656 17.523438 12.894532 22.042969 22.792969v.007813c4.855469 9.742187 6.226563 20.859374 3.882813 31.488281-1.734376 8.652343-7.328126 16.042969-15.183594 20.058593-8.109375 3.585938-17.40625 3.292969-25.277344-.789062-9.765625-4.828125-17.570312-12.878906-22.097656-22.789062zm60.160156 150.742187c2.65625-.003906 5.164062-1.242187 6.777344-3.351563 1.613281-2.109374 2.152344-4.851562 1.457031-7.417968l-26.34375-97.246094c4.394531-.582031 8.671875-1.847656 12.675781-3.746094 1.1875-.566406 2.3125-1.222656 3.433594-1.886718l26.808594 98.722656c1.972656 7.667968.289062 15.816406-4.5625 22.074218-4.855469 6.257813-12.328125 9.917969-20.246094 9.917969h-25.597656c0-5.753906-.273438-11.4375-.703125-17.066406zm-213.332031-170.667969c94.105469 0 170.664062 84.214844 170.664062 187.734375.917969 61.136719-27.289062 119.070313-75.984375 156.054688-5.824218-1.609375-11.835937-2.4375-17.878906-2.457031h-17.066406c-24.851563.023437-47.726563 13.539062-59.734375 35.292968-12.011719-21.753906-34.886719-35.269531-59.734375-35.292968h-17.066406c-6.042969.019531-12.054688.847656-17.878907 2.457031-48.695312-36.984375-76.902343-94.917969-75.988281-156.054688 0-103.519531 76.558594-187.734375 170.667969-187.734375zm-211.867188-8.042968v-.007813c4.515625-9.898437 12.300781-17.945313 22.042969-22.792969 4.34375-2.105468 9.101562-3.230468 13.933594-3.289062 3.890625-.019532 7.742187.835937 11.261718 2.5 7.875 4.023437 13.492188 11.414062 15.257813 20.082031 2.378906 10.621094 1.03125 21.734375-3.824219 31.476563-4.523437 9.914062-12.332031 17.964843-22.101562 22.789062-7.867188 4.089844-17.164063 4.382812-25.273438.792969-7.855468-4.019531-13.449218-11.40625-15.179687-20.058594-2.347657-10.632813-.976563-21.746094 3.882812-31.492187zm-26.359375 164.042968 26.875-98.980468c1.121094.664062 2.246094 1.320312 3.433594 1.886718 4.007812 1.898438 8.285156 3.164063 12.679688 3.746094l-26.347657 97.246094c-.695312 2.566406-.15625 5.308594 1.460938 7.417968 1.613281 2.109376 4.117187 3.347657 6.773437 3.351563h26.320313c-.429688 5.628906-.703125 11.3125-.703125 17.066406h-25.617188c-7.871094.003907-15.308594-3.613281-20.164062-9.808593-4.859375-6.199219-6.59375-14.28125-4.710938-21.925782zm0 0"/><path d="m307.242188 136.554688c-16.8125 0-25.601563 23.609374-25.601563 46.933593s8.789063 46.933594 25.601563 46.933594 25.601562-23.609375 25.601562-46.933594-8.789062-46.933593-25.601562-46.933593zm.171874 76.824218c-2.398437-.78125-8.707031-11.148437-8.707031-29.890625 0-18.742187 6.308594-29.105469 8.363281-29.890625 2.398438.785156 8.707032 11.148438 8.707032 29.890625 0 18.742188-6.308594 29.109375-8.359375 29.890625zm0 0"/><path d="m179.242188 204.824219c0 14.136719 11.460937 25.597656 25.601562 25.597656 14.136719 0 25.597656-11.460937 25.597656-25.597656 0-14.140625-11.460937-25.601563-25.597656-25.601563-14.132812.015625-25.585938 11.46875-25.601562 25.601563zm34.132812 0c0 4.710937-3.820312 8.53125-8.53125 8.53125-4.714844 0-8.535156-3.820313-8.535156-8.53125 0-4.714844 3.820312-8.535157 8.535156-8.535157 4.710938.003907 8.527344 3.820313 8.53125 8.535157zm0 0"/><path d="m185.074219 340.914062c14.117187 3.621094 26.976562 11.023438 37.203125 21.40625 8.410156 9.664063 21.03125 14.585938 33.765625 13.167969 12.734375 1.417969 25.351562-3.503906 33.765625-13.167969 10.222656-10.382812 23.085937-17.785156 37.199218-21.40625 47.203126-15.734374 40.242188-91.074218 39.925782-94.273437-.3125-3.144531-2.335938-5.859375-5.261719-7.054687-2.921875-1.199219-6.269531-.679688-8.695313 1.34375-33.566406 27.96875-49.257812 24.160156-69.144531 19.292968-9.050781-2.546875-18.386719-3.957031-27.789062-4.199218-9.402344.242187-18.738281 1.652343-27.792969 4.199218-19.875 4.863282-35.589844 8.675782-69.140625-19.292968-2.425781-2.023438-5.773437-2.542969-8.699219-1.34375-2.921875 1.195312-4.945312 3.910156-5.257812 7.054687-.316406 3.199219-7.277344 78.539063 39.921875 94.273437zm92.667969 9.34375c-5.230469 6.433594-13.523438 9.554688-21.699219 8.164063-8.175781 1.390625-16.46875-1.730469-21.699219-8.164063-6.101562-6.398437-13.195312-11.769531-21.011719-15.898437 10.386719-12.746094 26.300781-19.679687 42.710938-18.605469 16.40625-1.074218 32.320312 5.859375 42.710937 18.605469-7.816406 4.128906-14.910156 9.5-21.011718 15.898437zm-45.441407-73.453124c7.726563-2.222657 15.703125-3.472657 23.742188-3.714844 8.035156.242187 16.011719 1.492187 23.742187 3.714844 19.046875 4.652343 38.648438 9.425781 70.515625-12.40625-.582031 20.015624-5.257812 52.515624-28.691406 60.328124-2.492187.832032-4.675781 1.664063-6.886719 2.5-13.300781-19.03125-35.5-29.828124-58.679687-28.539062-23.183594-1.285156-45.382813 9.511719-58.683594 28.542969-2.207031-.835938-4.390625-1.671875-6.882813-2.5-23.433593-7.816407-28.109374-40.316407-28.691406-60.332031 31.867188 21.839843 51.464844 17.058593 70.515625 12.40625zm0 0"/></svg>
