<svg fill="white" id="Capa_1" enable-background="new 0 0 512 512" height="512" viewBox="0 0 512 512" width="512" xmlns="http://www.w3.org/2000/svg"><path d="m375.457 195.075-24.251-88.061c-2.182-10.733-11.693-18.837-23.061-18.837h-64.645v-17.972c13.786-3.375 24.048-15.829 24.048-30.64v-8.016c0-17.397-14.152-31.549-31.548-31.549s-31.548 14.152-31.548 31.548v8.016c0 14.812 10.262 27.265 24.048 30.64v17.973h-64.645c-11.368 0-20.878 8.103-23.061 18.837l-24.251 88.061c-.179.648-.269 1.318-.269 1.991v107.031c0 6.914 3.023 13.45 8.293 17.932 4.283 3.642 9.695 5.596 15.274 5.596 1.282 0 2.574-.104 3.862-.313 11.194-1.822 19.635-12.171 19.635-24.075 0 0 0-102.74 0-103.35 0-12.976-10.557-23.532-23.532-23.532-.875 0-1.739.052-2.59.146l12.638-45.89c3.915 2.908 8.76 4.631 14 4.631h5.75l-7.146 22.275c-1.265 3.944.907 8.167 4.851 9.433.762.244 1.534.36 2.293.36 3.172 0 6.119-2.029 7.14-5.211l4.85-15.118 5.751 31.633c.951 5.233 4.46 9.438 9.092 11.449v19.683c-4.657 2.052-8.144 6.324-9.031 11.639l-5.344 32.064c-.751 4.508.512 9.093 3.466 12.58 2.751 3.248 6.689 5.183 10.909 5.436v165.501c-9.562 5.426-16.032 15.695-16.032 27.453v.516h-8.532c-8.556 0-15.516 6.96-15.516 15.516v16.032c0 8.556 6.96 15.517 15.516 15.517h128.258c8.556 0 15.516-6.961 15.516-15.517v-16.032c0-8.555-6.96-15.516-15.516-15.516h-8.532v-.516c0-11.758-6.47-22.027-16.032-27.453v-12.628c0-4.142-3.358-7.5-7.5-7.5s-7.5 3.358-7.5 7.5v8.545c-.172-.003-.343-.013-.516-.013h-16.549v-57.146h17.064v16.55c0 4.142 3.358 7.5 7.5 7.5s7.5-3.358 7.5-7.5v-120.809c4.22-.253 8.157-2.188 10.909-5.436 2.954-3.487 4.217-8.072 3.466-12.58l-5.344-32.065c-.886-5.315-4.373-9.587-9.031-11.639v-19.682c4.632-2.011 8.141-6.216 9.092-11.449l5.751-31.633 18.253 56.905v99.351c0 11.903 8.441 22.253 19.634 24.074 1.289.21 2.58.313 3.863.313 5.579 0 10.991-1.954 15.274-5.596 5.271-4.482 8.293-11.018 8.293-17.932v-107.03c.002-.673-.089-1.343-.267-1.991zm-207.118 108.162c0 4.555-3.094 8.626-7.044 9.269-2.582.419-5.071-.256-7.009-1.905-1.914-1.627-3.011-3.998-3.011-6.505v-16.548h17.064zm0-30.689h-17.064v-50.737c2.647 1.034 5.523 1.608 8.532 1.608s5.885-.574 8.532-1.608zm-8.532-81.193c4.705 0 8.532 3.828 8.532 8.532s-3.828 8.532-8.532 8.532-8.532-3.828-8.532-8.532 3.827-8.532 8.532-8.532zm23.975-71.113c-4.712 0-8.532-3.82-8.532-8.532s3.82-8.532 8.532-8.532h9.846l3.103 17.064zm55.67-80.678v-8.016c0-9.125 7.423-16.548 16.548-16.548s16.548 7.423 16.548 16.548v8.016c0 9.125-7.423 16.548-16.548 16.548s-16.548-7.423-16.548-16.548zm-24.049 424.855c0-9.125 7.423-16.548 16.548-16.548h16.549v17.064h-33.097zm33.097-120.758v17.064h-17.064v-17.064zm-17.064-15v-57.145h17.064v57.145zm17.064 47.065v57.146h-16.548c-.173 0-.344.01-.516.013v-57.159zm71.629 104.21c.285 0 .516.231.516.516v16.032c0 .285-.231.517-.516.517h-128.258c-.285 0-.516-.231-.516-.517v-16.032c0-.284.231-.516.516-.516zm-40.081-32.065c9.125 0 16.548 7.423 16.548 16.548v.516h-33.096v-17.064zm.516-87.145h-17.064v-17.064h17.064zm0-32.065h-17.064v-57.145h17.064zm14.464-72.328c-.155.183-.328.183-.394.183h-77.269c-.065 0-.239 0-.394-.183-.155-.182-.126-.354-.115-.418l5.344-32.064c.042-.25.256-.432.509-.432h66.58c.253 0 .468.182.509.431l5.344 32.064c.012.066.041.237-.114.419zm-63.592-47.914v-17.064h49.129v17.064zm58.462-32.488c-.045.246-.258.424-.508.424h-66.781c-.25 0-.463-.178-.508-.424l-13.228-72.753h94.252zm28.474-72.754h9.762c4.712 0 8.532 3.82 8.532 8.532 0 4.712-3.82 8.532-8.532 8.532h-12.864zm4.023 32.065h5.75c5.24 0 10.085-1.723 14-4.631l12.638 45.89c-.851-.094-1.714-.146-2.59-.146-5.649 0-10.839 2.002-14.9 5.333zm38.331 168.855c0 2.507-1.097 4.878-3.011 6.505-1.938 1.649-4.427 2.327-7.01 1.905-3.95-.643-7.044-4.714-7.044-9.269v-15.689h17.064v16.548zm0-31.549h-17.064v-50.737c2.647 1.034 5.523 1.608 8.532 1.608s5.885-.574 8.532-1.608zm-8.533-64.129c-4.705 0-8.532-3.828-8.532-8.532s3.828-8.532 8.532-8.532 8.532 3.828 8.532 8.532-3.827 8.532-8.532 8.532z"/></svg>
